<svg width="49" height="49" viewBox="0 0 49 49" fill="none" xmlns="http://www.w3.org/2000/svg">
<path d="M25.8877 24.0055L31.6211 18.2855C31.8721 18.0344 32.0132 17.6939 32.0132 17.3388C32.0132 16.9837 31.8721 16.6432 31.6211 16.3921C31.37 16.1411 31.0295 16 30.6744 16C30.3193 16 29.9788 16.1411 29.7277 16.3921L24.0077 22.1255L18.2877 16.3921C18.0367 16.1411 17.6961 16 17.3411 16C16.986 16 16.6455 16.1411 16.3944 16.3921C16.1433 16.6432 16.0023 16.9837 16.0023 17.3388C16.0023 17.6939 16.1433 18.0344 16.3944 18.2855L22.1277 24.0055L16.3944 29.7255C16.2694 29.8494 16.1702 29.9969 16.1025 30.1594C16.0349 30.3218 16 30.4961 16 30.6721C16 30.8481 16.0349 31.0224 16.1025 31.1849C16.1702 31.3474 16.2694 31.4948 16.3944 31.6188C16.5183 31.7438 16.6658 31.843 16.8283 31.9106C16.9908 31.9783 17.165 32.0132 17.3411 32.0132C17.5171 32.0132 17.6914 31.9783 17.8538 31.9106C18.0163 31.843 18.1638 31.7438 18.2877 31.6188L24.0077 25.8855L29.7277 31.6188C29.8517 31.7438 29.9991 31.843 30.1616 31.9106C30.3241 31.9783 30.4984 32.0132 30.6744 32.0132C30.8504 32.0132 31.0247 31.9783 31.1872 31.9106C31.3496 31.843 31.4971 31.7438 31.6211 31.6188C31.746 31.4948 31.8452 31.3474 31.9129 31.1849C31.9806 31.0224 32.0155 30.8481 32.0155 30.6721C32.0155 30.4961 31.9806 30.3218 31.9129 30.1594C31.8452 29.9969 31.746 29.8494 31.6211 29.7255L25.8877 24.0055Z" fill="#1C1C1C"/>
</svg>
