<svg width="91" height="91" viewBox="0 0 91 91" fill="none" xmlns="http://www.w3.org/2000/svg">
<g clip-path="url(#clip0)">
<path d="M62.0067 51.8302L56.4853 44.17C52.2084 38.2335 49.3061 31.5904 47.8607 24.4209L46.5011 17.6792C46.3599 16.9796 45.746 16.4783 45.031 16.477H45.0292C44.3169 16.477 43.7008 16.977 43.5592 17.6749L42.127 24.6685C40.6596 31.823 37.7428 38.4499 33.458 44.3652L28.0523 51.828C27.7633 52.226 27.6899 52.7392 27.8526 53.2031L33.1062 68.0882C33.3177 68.688 33.8858 69.0887 34.5221 69.0887H55.5359C56.1722 69.0887 56.7404 68.688 56.9514 68.0874L62.205 53.2022C62.3668 52.7396 62.2943 52.2278 62.0067 51.8302ZM54.4735 66.0923H35.585L30.9462 52.9467L35.8919 46.1202C40.3812 39.9221 43.451 32.9874 45.0196 25.5022C46.582 32.9034 49.6179 39.7695 54.05 45.9193L59.1145 52.9454L54.4735 66.0923Z" fill="#1C1C1C"/>
<path d="M45.0292 49.6153C41.718 49.6153 39.0255 52.303 39.0255 55.6072C39.0255 58.9114 41.718 61.5986 45.0292 61.5986C48.3405 61.5986 51.033 58.9118 51.033 55.6076C51.033 52.3021 48.3405 49.6153 45.0292 49.6153ZM45.0292 58.6031C43.3745 58.6031 42.0271 57.2588 42.0271 55.6072C42.0271 53.9555 43.3741 52.6112 45.0292 52.6112C46.6844 52.6112 48.0313 53.9555 48.0313 55.6072C48.0313 57.2593 46.684 58.6031 45.0292 58.6031Z" fill="#1C1C1C"/>
<path d="M55.5359 66.0923H34.5226C33.6932 66.0923 33.0217 66.7624 33.0217 67.59V88.5603C33.0217 89.3883 33.6932 90.0585 34.5226 90.0585H55.5364C56.3657 90.0585 57.0372 89.3883 57.0372 88.5603V67.59C57.0372 66.7624 56.3653 66.0923 55.5359 66.0923ZM54.0351 87.0625H36.0234V69.0878H54.0351V87.0625Z" fill="#1C1C1C"/>
<path d="M45.0292 18.1603C44.1999 18.1603 43.5284 18.8305 43.5284 19.6585V43.6247C43.5284 44.4523 44.1999 45.1225 45.0292 45.1225C45.8586 45.1225 46.5301 44.4523 46.5301 43.6247V19.6581C46.5301 18.8305 45.8586 18.1603 45.0292 18.1603Z" fill="#1C1C1C"/>
<path d="M49.5322 66.0931H40.5263C36.3879 66.0931 33.0213 69.4532 33.0213 73.5823C33.0213 77.7115 36.3879 81.0715 40.5263 81.0715H49.5322C53.6706 81.0715 57.0372 77.7115 57.0372 73.5823C57.0372 69.4532 53.6706 66.0931 49.5322 66.0931ZM49.5322 78.076H40.5263C38.0431 78.076 36.0234 76.0603 36.0234 73.5823C36.0234 71.1044 38.0431 69.0882 40.5263 69.0882H49.5322C52.0154 69.0882 54.0351 71.104 54.0351 73.5823C54.0351 76.0603 52.0154 78.076 49.5322 78.076Z" fill="#1C1C1C"/>
<path d="M45.0292 0C44.1999 0 43.5284 0.670162 43.5284 1.49819V10.4851C43.5284 11.3127 44.1999 11.9829 45.0292 11.9829C45.8586 11.9829 46.5301 11.3127 46.5301 10.4851V1.49819C46.5301 0.670162 45.8586 0 45.0292 0Z" fill="#1C1C1C"/>
<path d="M62.6012 4.93299C62.015 4.3477 61.0647 4.3477 60.479 4.93299L52.974 12.4222C52.3878 13.0066 52.3878 13.9547 52.974 14.54C53.2673 14.8328 53.6508 14.9788 54.0351 14.9788C54.4194 14.9788 54.8029 14.8324 55.0962 14.54L62.6012 7.05077C63.1874 6.46636 63.1874 5.51828 62.6012 4.93299Z" fill="#1C1C1C"/>
<path d="M37.0845 12.4222L29.5799 4.93299C28.9937 4.3477 28.0435 4.3477 27.4577 4.93299C26.8716 5.5174 26.8716 6.46548 27.4577 7.05077L34.9627 14.54C35.2561 14.8328 35.6395 14.9788 36.0238 14.9788C36.4082 14.9788 36.7916 14.8324 37.0849 14.54C37.6707 13.9551 37.6707 13.0075 37.0845 12.4222Z" fill="#1C1C1C"/>
<path d="M34.5226 20.9703H25.5167C24.6874 20.9703 24.0159 21.6404 24.0159 22.4685C24.0159 23.2961 24.6874 23.9662 25.5167 23.9662H34.5226C35.3519 23.9662 36.0234 23.2961 36.0234 22.4685C36.0234 21.6404 35.3519 20.9703 34.5226 20.9703Z" fill="#1C1C1C"/>
<path d="M64.5417 20.9703H55.5359C54.7066 20.9703 54.0351 21.6404 54.0351 22.4685C54.0351 23.2961 54.707 23.9662 55.5359 23.9662H64.5417C65.3711 23.9662 66.0426 23.2961 66.0426 22.4685C66.043 21.6404 65.3711 20.9703 64.5417 20.9703Z" fill="#1C1C1C"/>
</g>
<defs>
<clipPath id="clip0">
<rect width="90.0585" height="90.0585" fill="white"/>
</clipPath>
</defs>
</svg>
