<svg width="136" height="60" viewBox="0 0 136 60" fill="none" xmlns="http://www.w3.org/2000/svg">
<path d="M28.596 20.94C29.5987 20.94 30.42 20.908 31.06 20.844V21.484C30.5053 21.7613 29.94 22.2627 29.364 22.988C28.8093 23.7133 28.308 24.7053 27.86 25.964L21.62 43.5C20.9373 43.4573 20.372 43.436 19.924 43.436C19.4973 43.436 18.9427 43.4573 18.26 43.5L9.876 23.532C9.59867 22.8493 9.28933 22.348 8.948 22.028C8.628 21.6867 8.308 21.5053 7.988 21.484V20.844C9.524 20.908 11.4653 20.94 13.812 20.94C16.244 20.94 18.036 20.908 19.188 20.844V21.484C18.3773 21.5267 17.8013 21.6227 17.46 21.772C17.1187 21.9213 16.948 22.22 16.948 22.668C16.948 23.0307 17.076 23.532 17.332 24.172L22.868 37.804L25.972 29.1C26.676 27.1373 27.028 25.5587 27.028 24.364C27.028 22.508 26.1533 21.548 24.404 21.484V20.844C26.004 20.908 27.4013 20.94 28.596 20.94ZM34.8708 18.476C35.9801 18.476 36.8334 18.7107 37.4308 19.18C38.0494 19.6493 38.3588 20.332 38.3588 21.228C38.3588 22.124 38.0494 22.8067 37.4308 23.276C36.8334 23.7453 35.9801 23.98 34.8708 23.98C33.7401 23.98 32.8761 23.7453 32.2788 23.276C31.6814 22.8067 31.3828 22.124 31.3828 21.228C31.3828 20.332 31.6814 19.6493 32.2788 19.18C32.8761 18.7107 33.7401 18.476 34.8708 18.476ZM37.9427 40.524C37.9427 41.3987 38.0708 42.0067 38.3268 42.348C38.6041 42.668 39.0734 42.828 39.7348 42.828V43.5C37.4308 43.4147 35.9161 43.372 35.1908 43.372C34.4654 43.372 32.8654 43.4147 30.3908 43.5V42.828C31.0521 42.828 31.5108 42.668 31.7668 42.348C32.0441 42.0067 32.1828 41.3987 32.1828 40.524V30.38C32.1828 29.3987 32.0441 28.684 31.7668 28.236C31.5108 27.788 31.0521 27.564 30.3908 27.564V26.892C31.0734 26.956 31.7348 26.988 32.3748 26.988C34.5934 26.988 36.4494 26.8387 37.9427 26.54V40.524ZM50.9373 40.46C52.4946 40.46 53.7853 39.7453 54.8093 38.316L55.3533 38.508C54.8839 40.0013 54.0839 41.2813 52.9533 42.348C51.8439 43.4147 50.4146 43.948 48.6653 43.948C46.4253 43.948 44.6333 43.2547 43.2893 41.868C41.9453 40.4813 41.2733 38.2627 41.2733 35.212C41.2733 32.2893 42.0199 30.1027 43.5133 28.652C45.0279 27.18 47.0226 26.444 49.4973 26.444C53.5293 26.444 55.5453 28.8333 55.5453 33.612H47.2893C47.2679 33.868 47.2573 34.252 47.2573 34.764C47.2573 36.812 47.6093 38.2733 48.3133 39.148C49.0386 40.0227 49.9133 40.46 50.9373 40.46ZM49.2733 27.18C48.0786 27.18 47.3746 29.1213 47.1613 33.004H50.8733C50.8946 31.2973 50.7666 29.9 50.4893 28.812C50.2333 27.724 49.8279 27.18 49.2733 27.18ZM70.3048 27.02C71.5208 27.02 72.3421 26.9773 72.7688 26.892V27.564C72.3208 27.7133 71.9048 28.0227 71.5208 28.492C71.1581 28.9613 70.8168 29.6867 70.4968 30.668L66.4968 42.572L65.1528 46.444C64.7688 47.5533 64.2994 48.3213 63.7448 48.748C63.0834 49.26 62.0914 49.516 60.7688 49.516C59.7021 49.516 58.7101 49.26 57.7928 48.748C56.8754 48.2573 56.4168 47.5107 56.4168 46.508C56.4168 45.7613 56.7048 45.164 57.2808 44.716C57.8568 44.268 58.6141 44.044 59.5528 44.044C60.4488 44.044 61.1528 44.2467 61.6648 44.652C62.1768 45.0573 62.4328 45.644 62.4328 46.412C62.4328 46.924 62.2514 47.404 61.8888 47.852C61.5474 48.3213 61.0354 48.6627 60.3528 48.876C60.5661 48.9187 60.9288 48.94 61.4408 48.94C62.9128 48.94 63.9261 48.0867 64.4808 46.38L64.6408 45.836L57.1848 29.356C56.8648 28.6307 56.5448 28.1507 56.2248 27.916C55.9261 27.6813 55.6274 27.564 55.3287 27.564V26.892C57.0354 27.02 58.7741 27.084 60.5448 27.084C61.9314 27.084 63.4781 27.02 65.1848 26.892V27.564C64.5661 27.564 64.0861 27.6067 63.7448 27.692C63.4248 27.7773 63.2648 27.9693 63.2648 28.268C63.2648 28.4387 63.3074 28.6093 63.3928 28.78L67.3288 38.156L68.6728 34.06C69.0781 32.8227 69.2808 31.7347 69.2808 30.796C69.2808 29.7933 69.0674 29.0147 68.6408 28.46C68.2141 27.9053 67.6488 27.6067 66.9448 27.564V26.892C67.7341 26.9773 68.8541 27.02 70.3048 27.02ZM85.2583 26.444C86.3036 26.444 87.0503 26.764 87.4983 27.404C87.9676 28.044 88.2023 28.8013 88.2023 29.676C88.2023 30.636 87.9249 31.404 87.3703 31.98C86.8369 32.5347 86.1329 32.812 85.2583 32.812C84.3409 32.812 83.6369 32.6093 83.1463 32.204C82.6556 31.7773 82.4103 31.212 82.4103 30.508C82.4103 29.2493 82.9543 28.2573 84.0423 27.532C83.6583 27.532 83.3169 27.6067 83.0183 27.756C82.4849 27.9907 82.0369 28.3747 81.6743 28.908C81.3116 29.42 81.1302 29.9853 81.1302 30.604V40.204C81.1302 41.2067 81.3329 41.9 81.7383 42.284C82.1649 42.6467 82.8796 42.828 83.8823 42.828V43.5C83.6049 43.5 83.3703 43.4893 83.1783 43.468C80.9383 43.404 79.4449 43.372 78.6983 43.372C78.0369 43.372 76.5543 43.404 74.2503 43.468C74.0796 43.4893 73.8556 43.5 73.5783 43.5V42.828C74.2396 42.828 74.6983 42.668 74.9543 42.348C75.2316 42.0067 75.3703 41.3987 75.3703 40.524V30.38C75.3703 29.3987 75.2316 28.684 74.9543 28.236C74.6983 27.788 74.2396 27.564 73.5783 27.564V26.892C74.2609 26.956 74.9223 26.988 75.5623 26.988C77.7809 26.988 79.6369 26.8387 81.1302 26.54V28.844C81.9409 27.244 83.3169 26.444 85.2583 26.444ZM93.1445 43.724C91.7792 43.724 90.7445 43.3613 90.0405 42.636C89.3578 41.8893 89.0165 40.9613 89.0165 39.852C89.0165 38.892 89.2618 38.1027 89.7525 37.484C90.2645 36.844 90.8618 36.3533 91.5445 36.012C92.2272 35.6707 93.1125 35.3187 94.2005 34.956C95.3525 34.572 96.1952 34.22 96.7285 33.9C97.2618 33.58 97.5285 33.132 97.5285 32.556V29.708C97.5285 29.0253 97.3578 28.4173 97.0165 27.884C96.6752 27.3507 96.0885 27.084 95.2565 27.084C94.5952 27.084 93.9978 27.2653 93.4645 27.628C94.1898 27.884 94.7232 28.268 95.0645 28.78C95.4272 29.2707 95.6085 29.8253 95.6085 30.444C95.6085 31.276 95.3098 31.948 94.7125 32.46C94.1365 32.9507 93.4325 33.196 92.6005 33.196C91.7685 33.196 91.1072 32.94 90.6165 32.428C90.1472 31.8947 89.9125 31.2227 89.9125 30.412C89.9125 29.772 90.0725 29.2173 90.3925 28.748C90.7125 28.2787 91.2138 27.852 91.8965 27.468C93.0912 26.7853 94.7978 26.444 97.0165 26.444C98.1898 26.444 99.2032 26.5613 100.057 26.796C100.91 27.0093 101.635 27.4253 102.233 28.044C102.659 28.492 102.937 29.0573 103.065 29.74C103.214 30.4013 103.289 31.3293 103.289 32.524V41.1C103.289 41.6333 103.321 41.996 103.385 42.188C103.47 42.38 103.609 42.476 103.801 42.476C103.95 42.476 104.11 42.4333 104.281 42.348C104.451 42.2413 104.611 42.124 104.76 41.996L105.081 42.54C104.163 43.3293 102.851 43.724 101.145 43.724C99.8645 43.724 98.9685 43.5107 98.4565 43.084C97.9445 42.636 97.6672 42.0387 97.6245 41.292C96.6218 42.9133 95.1285 43.724 93.1445 43.724ZM96.3445 41.164C96.7925 41.164 97.1872 40.9827 97.5285 40.62V33.868C97.3365 34.188 96.9845 34.604 96.4725 35.116C95.8965 35.6707 95.4592 36.2147 95.1605 36.748C94.8618 37.26 94.7125 37.964 94.7125 38.86C94.7125 40.396 95.2565 41.164 96.3445 41.164ZM126.48 21.484C125.818 21.6333 125.328 21.868 125.008 22.188C124.688 22.4867 124.474 22.956 124.368 23.596C124.261 24.236 124.208 25.196 124.208 26.476V34.188C124.208 37.26 123.77 39.5213 122.896 40.972C122.32 41.932 121.466 42.668 120.336 43.18C119.226 43.692 117.786 43.948 116.016 43.948C113.434 43.948 111.429 43.436 110 42.412C108.954 41.6653 108.25 40.6627 107.888 39.404C107.546 38.1453 107.376 36.4387 107.376 34.284V24.236C107.376 23.4253 107.322 22.8387 107.216 22.476C107.109 22.1133 106.896 21.868 106.576 21.74C106.277 21.612 105.786 21.5267 105.104 21.484V20.844C106.32 20.908 108.197 20.94 110.736 20.94C113.253 20.94 115.162 20.908 116.464 20.844V21.484C115.696 21.5267 115.13 21.612 114.768 21.74C114.426 21.868 114.192 22.1133 114.064 22.476C113.936 22.8387 113.872 23.4253 113.872 24.236V37.292C113.872 39.34 114.192 40.78 114.832 41.612C115.472 42.4227 116.485 42.828 117.872 42.828C119.898 42.828 121.338 42.1133 122.192 40.684C123.045 39.2333 123.472 37.1853 123.472 34.54V27.116C123.472 25.5373 123.408 24.4067 123.28 23.724C123.152 23.02 122.864 22.508 122.416 22.188C121.989 21.868 121.264 21.6333 120.24 21.484V20.844C121.114 20.908 122.309 20.94 123.824 20.94C124.954 20.94 125.84 20.908 126.48 20.844V21.484Z" fill="#1C1C1C"/>
</svg>
