<svg width="91" height="91" viewBox="0 0 91 91" fill="none" xmlns="http://www.w3.org/2000/svg">
<path d="M90.7387 28.0781C90.7204 27.4166 89.9182 26.9803 89.1889 27.0648C89.1706 27.0648 89.1706 27.0648 89.1525 27.0648C73.9834 28.9225 56.9182 35.0868 52.1778 46.8523C52.0319 46.5005 51.9225 46.1346 51.8131 45.7264C51.722 45.3887 51.4303 45.0931 51.0109 44.9665C50.5916 44.8257 50.1175 44.8539 49.7347 45.0368C49.6253 45.0931 49.5341 45.1495 49.4065 45.2198C52.2325 30.4706 47.0363 14.8347 34.2556 0.451502C33.4899 -0.406977 32.1954 0.212194 32.1954 0.268545C20.7822 8.22011 10.8457 20.5486 15.1667 32.4127C14.802 32.1735 14.4191 31.9061 14.0545 31.6106C13.7445 31.3713 13.2887 31.2588 12.8329 31.315C12.3953 31.3713 12.0307 31.5965 11.8302 31.9202C6.54292 40.7585 10.0252 47.5279 14.9661 53.5655C13.6351 53.4107 12.6689 53.5092 11.9578 53.847C11.3197 54.1425 10.9003 54.621 10.8092 55.2121C10.7727 55.3388 10.7909 55.4795 10.8274 55.6062C15.3854 69.905 12.2496 80.1928 1.23733 87.0608C0.690388 87.3985 0.690388 88.0178 0.726888 87.8771V87.9193C0.745029 88.3696 1.25558 88.8341 1.83903 88.9185C7.34515 89.6785 12.7235 90.0585 17.9926 90.0585C35.9877 90.0585 52.3419 85.6393 65.159 77.153C82.3155 65.8096 91.395 48.3723 90.7387 28.0781ZM49.6253 47.6404C50.1175 48.8368 50.7921 49.7797 51.6491 50.5115C51.9955 50.8211 52.5424 50.9337 53.0347 50.8352C53.5452 50.7226 53.9281 50.3848 54.0192 49.9908C56.6447 38.0985 72.5795 31.6669 87.3839 29.4573C77.2651 54.1988 50.7375 79.1655 16.2423 85.3719C24.1368 81.6565 30.1899 75.1404 34.5474 65.6688C34.9484 65.8377 35.8418 66.3725 37.4098 67.9487C37.7745 68.3146 38.3943 68.4554 38.9413 68.3006C39.5065 68.1598 39.8711 67.7377 39.8529 67.2873C39.6341 59.9127 40.254 52.8759 49.6253 47.6404ZM13.6534 55.6062C14.1092 55.578 15.2213 55.6484 17.6462 56.3099C18.2114 56.4647 18.8313 56.324 19.196 55.9721C19.5605 55.6062 19.5788 55.0995 19.2324 54.7195C13.8539 48.6397 9.40527 42.4614 13.5805 34.1439C14.8385 34.932 16.06 35.4527 17.2998 35.706C17.7921 35.8045 18.339 35.6919 18.6854 35.3823C19.0318 35.0727 19.123 34.6364 18.9042 34.2705C12.7235 23.1804 21.5661 11.0912 32.4143 3.01294C41.3844 28.0218 36.7353 60.1098 12.1948 79.8269C16.1876 73.3952 16.6617 65.3733 13.6534 55.6062ZM36.6258 7.4039C46.1064 20.3939 49.443 34.1157 46.2341 47.0071C38.6496 51.9611 37.2092 58.238 37.0998 64.5147C36.097 63.8252 35.2037 63.5015 34.365 63.4733C33.6358 63.4874 32.9429 63.6985 32.4324 64.1489C32.323 64.2474 32.2501 64.36 32.1954 64.4867C30.3175 68.6243 28.1296 72.1708 25.6136 75.1544C21.6573 77.9552 17.2269 80.4884 12.3407 82.7121C37.5375 63.8111 43.7181 32.8209 36.6258 7.4039ZM63.3723 75.5626C50.1905 84.2883 33.0523 88.5385 14.2186 87.8771C48.7319 82.6416 75.8066 59.2512 87.8215 34.932C86.4541 51.6515 77.958 65.9081 63.3723 75.5626Z" fill="black"/>
</svg>
